<?xml version="1.0" encoding="utf-8"?>
<!-- Generator: Adobe Illustrator 22.0.1, SVG Export Plug-In . SVG Version: 6.00 Build 0)  -->
<svg version="1.1" xmlns="http://www.w3.org/2000/svg" xmlns:xlink="http://www.w3.org/1999/xlink" x="0px" y="0px"
	 viewBox="0 0 263.9 111.6" style="enable-background:new 0 0 263.9 111.6;" xml:space="preserve">
<style type="text/css">
	.st1{fill:#181716;}
	.st2{fill:#229FFF;}
	.st3{fill:none;}
	.st4{fill:#FFFFFF;}
</style>
<g id="Направляющие_для_монтажной_области">
</g>
<g id="Layer_1">
	<g>
		<g>
			<g>
				<path class="st4" d="M57,47.1c-2.5,0-4.5-2-4.5-4.5V25.9c0-2.5,2-4.5,4.5-4.5c2.5,0,4.5,2,4.5,4.5v16.6
					C61.5,45,59.5,47.1,57,47.1"/>
				<path class="st4" d="M46.5,54.7c-0.8,2.4-3.3,3.7-5.7,2.9l-15.7-5.1c-2.4-0.8-3.7-3.3-2.9-5.7c0.8-2.4,3.3-3.7,5.7-2.9L43.6,49
					C46,49.8,47.2,52.3,46.5,54.7"/>
				<path class="st4" d="M67.5,54.7c0.8,2.4,3.3,3.7,5.7,2.9l15.7-5.1c2.4-0.8,3.7-3.3,2.9-5.7c-0.8-2.4-3.3-3.7-5.7-2.9L70.4,49
					C68,49.8,66.7,52.4,67.5,54.7"/>
				<path class="st4" d="M35.5,87.9c-2-1.5-2.5-4.3-1-6.3l9.7-13.4c1.5-2,4.3-2.5,6.3-1c2,1.5,2.5,4.3,1,6.3l-9.7,13.4
					C40.3,88.9,37.5,89.4,35.5,87.9"/>
				<path class="st4" d="M78.5,87.9c2-1.5,2.5-4.3,1-6.3l-9.7-13.4c-1.5-2-4.3-2.5-6.3-1c-2,1.5-2.5,4.3-1,6.3l9.7,13.4
					C73.7,88.9,76.5,89.4,78.5,87.9"/>
			</g>
			<g>
				<path class="st2" d="M144.9,39.3c0,2.7-2.1,4.8-4.8,4.8c-2.6,0-4.8-2.2-4.8-4.8c0-2.7,2.1-4.8,4.8-4.8
					C142.8,34.4,144.9,36.6,144.9,39.3"/>
				<path class="st2" d="M157.3,39.3c0,2.7-2.1,4.8-4.8,4.8c-2.6,0-4.8-2.2-4.8-4.8c0-2.7,2.1-4.8,4.8-4.8
					C155.2,34.4,157.3,36.6,157.3,39.3"/>
				<path class="st4" d="M111.5,55.6l6.1-7.4c0.4-0.5,0.2-1.1-0.5-1.1h-4.6c-0.4,0-0.9,0.2-1.2,0.6l-4.2,5.3v-4.9c0-0.7-0.3-1-1-1
					h-3.3c-0.7,0-1,0.3-1,1v17.1c0,0.7,0.3,1,1,1h3.4c0.7,0,1-0.3,1-1v-6.6l5.6,7c0.3,0.4,0.7,0.7,1.1,0.7h4.7
					c0.6,0,0.8-0.7,0.5-1.1L111.5,55.6z"/>
				<path class="st4" d="M205.1,47.1h-14.2c-0.4,0-0.8,0.4-0.8,0.8v3.7c0,0.5,0.4,0.8,0.8,0.8h4.5v12.9c0,0.4,0.4,0.8,0.8,0.8h3.7
					c0.4,0,0.8-0.4,0.8-0.8V52.4h4.4c0.4,0,0.8-0.4,0.8-0.8v-3.7C205.9,47.5,205.5,47.1,205.1,47.1"/>
				<path class="st4" d="M163.1,61.9h-4.6v-3.6h4.6C165.9,58.3,166.1,61.9,163.1,61.9 M158.6,51.4h3.4c2.2,0,2.2,2.9,0,2.9h-3.4
					V51.4z M167.2,55.8c3.4-3.2,1.1-8.7-4.1-8.7h-8.9c-0.4,0-0.8,0.4-0.8,0.8v17.4c0,0.5,0.4,0.8,0.8,0.8h9.8
					C170.8,66.2,172.6,58.3,167.2,55.8"/>
				<path class="st4" d="M149.3,47.9c0-0.4-0.4-0.8-0.8-0.8h-4.2c-0.4,0-0.8,0.4-0.8,0.8v17.4c0,0.4,0.4,0.8,0.8,0.8h4.2
					c0.4,0,0.8-0.4,0.8-0.8V47.9z"/>
				<path class="st4" d="M234.2,55.9h-2.9v-4.4h2.8c1.9,0,2.5,0.9,2.5,2.1C236.6,54.7,236.1,55.9,234.2,55.9 M234.6,47.1h-7.7
					c-0.5,0-0.8,0.4-0.8,0.8v17.4c0,0.4,0.4,0.8,0.8,0.8h3.7c0.4,0,0.8-0.4,0.8-0.8v-5.2h3c4.3,0,7.5-2.3,7.5-6.5
					C241.9,49.7,238.5,47.1,234.6,47.1"/>
				<path class="st4" d="M212.1,58.7l2.1-6.3l2.1,6.3H212.1z M224.3,65.2l-6.5-17.4c-0.2-0.5-0.5-0.7-1.1-0.7h-4.9
					c-0.6,0-0.9,0.3-1.1,0.7l-6.5,17.4c-0.2,0.5,0.1,1,0.7,1h4.1c0.3,0,0.7-0.3,0.8-0.6l0.8-2.6h7.2l0.8,2.6
					c0.1,0.3,0.5,0.6,0.8,0.6h4.1C224.2,66.2,224.5,65.7,224.3,65.2"/>
				<path class="st4" d="M139.3,65.3V47.9c0-0.5-0.4-0.8-0.8-0.8h-4.1c-0.3,0-0.6,0.2-0.7,0.4l-7.5,10.2l0-9.8
					c0-0.5-0.4-0.8-0.8-0.8h-3.7c-0.4,0-0.8,0.4-0.8,0.8v17.4c0,0.4,0.4,0.8,0.8,0.8h4.1c0.3,0,0.6-0.2,0.7-0.4l7.5-10.2l0,9.8
					c0,0.4,0.4,0.8,0.8,0.8h3.7C139,66.2,139.3,65.8,139.3,65.3L139.3,65.3z"/>
				<path class="st4" d="M188.8,62.6l-2.2-2.3l0,0c-0.1-0.2-0.4-0.3-0.6-0.3c-0.2,0-0.4,0.1-0.6,0.2c-1.9,1.5-3.4,1.6-4.3,1.6
					c-2.8,0-5.1-2.3-5.1-5.1c0-2.8,2.3-5.1,5.1-5.1c0.9,0,2.4,0.1,4.3,1.6c0.1,0.1,0.3,0.2,0.6,0.2c0.3,0,0.5-0.1,0.6-0.3h0l2.2-2.3
					v0c0.1-0.1,0.2-0.3,0.2-0.6c0-0.2-0.1-0.4-0.2-0.6v0c-2.5-2.2-4.7-3.1-7.6-3.1c-5.6,0-10.1,4.5-10.1,10.1
					c0,5.7,4.5,10.2,10.1,10.2c2.8,0,5.1-0.9,7.6-3.1v0c0.2-0.1,0.2-0.4,0.2-0.6C189.1,62.9,189,62.7,188.8,62.6L188.8,62.6z"/>
			</g>
			<g>
				<path class="st2" d="M143.9,80.4H141V79h6.4c0.2,0,0.4-0.2,0.4-0.4v-2.5c0-0.2-0.2-0.4-0.4-0.4h-9.5c-0.2,0-0.4,0.2-0.4,0.4
					v12.4c0,0.2,0.2,0.4,0.4,0.4h5.7c3.1,0,5-1.6,5-4.3C148.7,82,146.8,80.4,143.9,80.4z M145.1,84.6c0,0.6-0.2,1.2-1.5,1.2H141
					v-2.3h2.6C145,83.5,145.1,84.1,145.1,84.6z"/>
				<path class="st2" d="M153.7,75.8H151c-0.2,0-0.4,0.2-0.4,0.4v12.4c0,0.2,0.2,0.4,0.4,0.4h2.7c0.2,0,0.4-0.2,0.4-0.4V76.2
					C154.1,76,153.9,75.8,153.7,75.8z"/>
				<path class="st2" d="M165,82.1c1-0.7,1.5-1.6,1.5-2.8c0-2.2-2-3.7-4.9-3.7c-2.2,0-3.9,0.7-5.3,2.2c-0.1,0.1-0.1,0.4,0,0.5
					l1.4,1.7c0.1,0.1,0.2,0.1,0.3,0.1c0.1,0,0.2,0,0.3-0.1c0.9-0.9,1.8-1.2,3.1-1.2c0.8,0,1.6,0.3,1.6,1c0,0.7-0.6,1-1.8,1h-1.4
					c-0.2,0-0.4,0.2-0.4,0.4v2.3c0,0.2,0.2,0.4,0.4,0.4h1.4c0.8,0,2.1,0.1,2.1,1.1c0,0.8-0.9,1.1-1.7,1.1c-1.4,0-2.7-0.5-3.7-1.5
					c-0.1-0.1-0.2-0.1-0.3-0.1c-0.1,0-0.2,0.1-0.3,0.2l-1.5,1.9c-0.1,0.2-0.1,0.4,0,0.5c1.5,1.5,3.2,2.2,5.8,2.2
					c3,0,5.1-1.7,5.1-4.1C166.8,83.8,166.2,82.7,165,82.1z"/>
				<path class="st2" d="M179.6,75.8h-2.7c-0.2,0-0.4,0.2-0.4,0.4v4.5h-4.3v-4.5c0-0.2-0.2-0.4-0.4-0.4h-2.7c-0.2,0-0.4,0.2-0.4,0.4
					v12.4c0,0.2,0.2,0.4,0.4,0.4h2.7c0.2,0,0.4-0.2,0.4-0.4V84h4.3v4.6c0,0.2,0.2,0.4,0.4,0.4h2.7c0.2,0,0.4-0.2,0.4-0.4V76.2
					C180,76,179.9,75.8,179.6,75.8z"/>
				<path class="st2" d="M192.4,85.8h-6.3V84h5.5c0.2,0,0.4-0.2,0.4-0.4v-2.4c0-0.2-0.2-0.4-0.4-0.4h-5.5V79h6.3
					c0.2,0,0.4-0.2,0.4-0.4v-2.4c0-0.2-0.2-0.4-0.4-0.4H183c-0.2,0-0.4,0.2-0.4,0.4v12.4c0,0.2,0.2,0.4,0.4,0.4h9.5
					c0.2,0,0.4-0.2,0.4-0.4v-2.4C192.8,86,192.7,85.8,192.4,85.8z"/>
				<path class="st2" d="M206.1,86.4l-1.7-1.9c-0.1-0.2-0.4-0.2-0.5,0c-1,0.9-1.7,1.4-3,1.4c-1.8,0-3.2-1.5-3.2-3.5
					c0-2,1.4-3.5,3.2-3.5c1.3,0,2,0.4,2.9,1.3c0.1,0.1,0.2,0.1,0.3,0.1c0.1,0,0.2-0.1,0.3-0.1l1.6-1.9c0.1-0.2,0.1-0.4,0-0.5
					c-1.1-1.1-2.5-2.1-5.1-2.1c-3.9,0-6.9,2.9-6.9,6.8c0,3.9,2.9,6.8,6.8,6.8c2.3,0,3.9-0.7,5.4-2.2
					C206.2,86.8,206.2,86.6,206.1,86.4z"/>
			</g>
		</g>
		<path class="st3" d="M57.1,11.8c2.7,0,4.8,2.1,4.8,4.8c0,2.6-2.2,4.8-4.8,4.8c-2.7,0-4.8-2.1-4.8-4.8C52.3,14,54.5,11.8,57.1,11.8
			"/>
		<path class="st3" d="M57.1-0.6c2.7,0,4.8,2.1,4.8,4.8C62,6.9,59.8,9,57.1,9c-2.7,0-4.8-2.1-4.8-4.8C52.3,1.6,54.5-0.6,57.1-0.6"/>
		<path class="st3" d="M85.5,101.4c2.7,0,4.8,2.1,4.8,4.8c0,2.6-2.2,4.8-4.8,4.8c-2.7,0-4.8-2.1-4.8-4.8
			C80.7,103.6,82.8,101.4,85.5,101.4"/>
		<path class="st3" d="M85.5,89c2.7,0,4.8,2.1,4.8,4.8c0,2.6-2.2,4.8-4.8,4.8c-2.7,0-4.8-2.1-4.8-4.8C80.7,91.2,82.8,89,85.5,89"/>
		<path class="st3" d="M12.4,55.9c0-2.7,2.1-4.8,4.8-4.8c2.6,0,4.8,2.2,4.8,4.8c0,2.7-2.1,4.8-4.8,4.8
			C14.6,60.7,12.4,58.5,12.4,55.9"/>
		<path class="st3" d="M0,55.9C0,53.2,2.1,51,4.8,51c2.6,0,4.8,2.2,4.8,4.8c0,2.7-2.1,4.8-4.8,4.8C2.1,60.7,0,58.5,0,55.9"/>
		<path class="st3" d="M254.3,28.9c0-2.7,2.1-4.8,4.8-4.8c2.6,0,4.8,2.2,4.8,4.8c0,2.7-2.1,4.8-4.8,4.8
			C256.4,33.7,254.3,31.6,254.3,28.9"/>
		<path class="st3" d="M241.9,28.9c0-2.7,2.1-4.8,4.8-4.8c2.6,0,4.8,2.2,4.8,4.8c0,2.7-2.1,4.8-4.8,4.8
			C244,33.7,241.9,31.6,241.9,28.9"/>
	</g>
</g>
</svg>
